<?xml version="1.0" encoding="UTF-8"?>
<svg xmlns="http://www.w3.org/2000/svg" xmlns:xlink="http://www.w3.org/1999/xlink" width="28pt" height="28pt" viewBox="0 0 28 28" version="1.1">
<g id="surface1">
<path style=" stroke:none;fill-rule:nonzero;fill:rgb(0%,0%,0%);fill-opacity:1;" d="M 16.753906 19.746094 C 16.527344 19.746094 16.34375 19.929688 16.34375 20.15625 L 16.34375 20.78125 C 16.34375 21.007812 16.527344 21.191406 16.753906 21.191406 C 16.980469 21.191406 17.164062 21.007812 17.164062 20.78125 L 17.164062 20.15625 C 17.164062 19.929688 16.980469 19.746094 16.753906 19.746094 Z M 16.753906 19.746094 "/>
<path style=" stroke:none;fill-rule:nonzero;fill:rgb(0%,0%,0%);fill-opacity:1;" d="M 23.691406 19.746094 C 23.464844 19.746094 23.28125 19.929688 23.28125 20.15625 L 23.28125 20.78125 C 23.28125 21.007812 23.464844 21.191406 23.691406 21.191406 C 23.917969 21.191406 24.101562 21.007812 24.101562 20.78125 L 24.101562 20.15625 C 24.101562 19.929688 23.917969 19.746094 23.691406 19.746094 Z M 23.691406 19.746094 "/>
<path style=" stroke:none;fill-rule:nonzero;fill:rgb(0%,0%,0%);fill-opacity:1;" d="M 21.347656 20.429688 C 21.179688 20.28125 20.917969 20.296875 20.769531 20.46875 C 20.636719 20.621094 20.4375 20.707031 20.222656 20.707031 C 20.007812 20.707031 19.808594 20.621094 19.675781 20.46875 C 19.527344 20.296875 19.265625 20.28125 19.097656 20.429688 C 18.925781 20.578125 18.910156 20.839844 19.058594 21.007812 C 19.347656 21.339844 19.769531 21.527344 20.222656 21.527344 C 20.675781 21.527344 21.097656 21.339844 21.386719 21.007812 C 21.535156 20.839844 21.519531 20.578125 21.347656 20.429688 Z M 21.347656 20.429688 "/>
<path style=" stroke:none;fill-rule:nonzero;fill:rgb(0%,0%,0%);fill-opacity:1;" d="M 5.953125 15.863281 C 5.792969 15.703125 5.53125 15.703125 5.371094 15.863281 L 4.929688 16.304688 C 4.769531 16.464844 4.769531 16.726562 4.929688 16.886719 C 5.007812 16.964844 5.113281 17.007812 5.21875 17.007812 C 5.324219 17.007812 5.429688 16.964844 5.507812 16.886719 L 5.953125 16.441406 C 6.113281 16.28125 6.113281 16.023438 5.953125 15.863281 Z M 5.953125 15.863281 "/>
<path style=" stroke:none;fill-rule:nonzero;fill:rgb(0%,0%,0%);fill-opacity:1;" d="M 10.855469 20.765625 C 10.695312 20.605469 10.4375 20.605469 10.277344 20.765625 L 9.832031 21.210938 C 9.671875 21.371094 9.671875 21.632812 9.832031 21.792969 C 9.914062 21.871094 10.019531 21.910156 10.121094 21.910156 C 10.226562 21.910156 10.332031 21.871094 10.414062 21.792969 L 10.855469 21.347656 C 11.015625 21.1875 11.015625 20.925781 10.855469 20.765625 Z M 10.855469 20.765625 "/>
<path style=" stroke:none;fill-rule:nonzero;fill:rgb(0%,0%,0%);fill-opacity:1;" d="M 8.714844 19.59375 C 8.699219 19.371094 8.503906 19.199219 8.277344 19.214844 C 8.078125 19.226562 7.875 19.148438 7.722656 18.996094 C 7.570312 18.84375 7.492188 18.640625 7.503906 18.441406 C 7.519531 18.214844 7.351562 18.019531 7.125 18.003906 C 6.898438 17.988281 6.703125 18.160156 6.6875 18.386719 C 6.65625 18.820312 6.824219 19.257812 7.144531 19.574219 C 7.4375 19.871094 7.832031 20.035156 8.234375 20.035156 C 8.269531 20.035156 8.300781 20.035156 8.335938 20.03125 C 8.558594 20.015625 8.730469 19.820312 8.714844 19.59375 Z M 8.714844 19.59375 "/>
<path style=" stroke:none;fill-rule:nonzero;fill:rgb(0%,0%,0%);fill-opacity:1;" d="M 20.914062 13.304688 C 20.898438 12.28125 20.804688 11.261719 20.636719 10.269531 C 20.433594 9.050781 20.113281 7.882812 19.691406 6.792969 C 20.199219 5.226562 20.421875 3.597656 20.359375 1.9375 C 20.335938 1.320312 19.824219 0.84375 19.203125 0.867188 C 18.597656 0.886719 18.109375 1.414062 18.132812 2.023438 C 18.152344 2.589844 18.132812 3.15625 18.074219 3.714844 C 17.136719 2.34375 15.972656 1.167969 14.609375 0.199219 C 14.113281 -0.148438 13.40625 -0.0273438 13.054688 0.464844 C 12.703125 0.960938 12.828125 1.671875 13.320312 2.019531 C 13.707031 2.292969 14.074219 2.589844 14.421875 2.902344 C 14.3125 2.894531 14.207031 2.894531 14.097656 2.894531 C 13.136719 2.894531 12.207031 3.109375 11.339844 3.535156 C 9.890625 4.242188 8.785156 5.464844 8.21875 6.972656 C 8.089844 7.320312 8.105469 7.707031 8.269531 8.035156 C 8.429688 8.367188 8.726562 8.621094 9.078125 8.730469 C 10.605469 9.203125 12.273438 9.074219 13.707031 8.371094 C 14.972656 7.75 15.972656 6.746094 16.582031 5.5 C 16.703125 5.699219 16.816406 5.898438 16.929688 6.105469 C 17.054688 6.34375 17.179688 6.59375 17.300781 6.855469 C 17.230469 7.027344 17.160156 7.199219 17.085938 7.367188 C 16.464844 8.746094 15.570312 10.066406 14.433594 11.296875 C 13.808594 11.96875 13.117188 12.605469 12.371094 13.191406 C 11.21875 12.273438 9.8125 11.714844 8.335938 11.601562 C 8.109375 11.585938 7.910156 11.753906 7.894531 11.980469 C 7.878906 12.207031 8.046875 12.402344 8.273438 12.421875 C 10.121094 12.5625 11.867188 13.515625 12.988281 14.992188 C 14.933594 17.554688 14.738281 21.234375 12.402344 23.570312 C 11.125 24.847656 9.449219 25.484375 7.773438 25.484375 C 6.097656 25.484375 4.421875 24.847656 3.148438 23.570312 C 0.597656 21.019531 0.597656 16.871094 3.148438 14.320312 C 4.125 13.339844 5.363281 12.707031 6.726562 12.484375 C 6.953125 12.449219 7.101562 12.238281 7.066406 12.015625 C 7.03125 11.792969 6.820312 11.640625 6.597656 11.675781 C 5.0625 11.921875 3.667969 12.636719 2.566406 13.738281 C -0.304688 16.609375 -0.304688 21.28125 2.566406 24.152344 C 4.003906 25.585938 5.886719 26.304688 7.773438 26.304688 C 9.660156 26.304688 11.546875 25.585938 12.980469 24.152344 C 13.160156 23.972656 13.324219 23.789062 13.480469 23.597656 C 13.992188 24.765625 14.796875 25.777344 15.835938 26.550781 C 17.113281 27.5 18.628906 28 20.222656 28 C 21.472656 28 22.710938 27.679688 23.796875 27.074219 C 23.996094 26.964844 24.066406 26.714844 23.957031 26.515625 C 23.847656 26.320312 23.597656 26.246094 23.398438 26.359375 C 22.433594 26.894531 21.335938 27.179688 20.222656 27.179688 C 18.804688 27.179688 17.457031 26.734375 16.324219 25.894531 C 15.265625 25.105469 14.480469 24.039062 14.046875 22.804688 C 15.136719 21.035156 15.425781 18.90625 14.847656 16.902344 C 15.875 15.429688 17.4375 14.457031 19.179688 14.175781 C 19.617188 14.105469 20.050781 14.097656 20.492188 14.097656 C 23.976562 14.242188 26.765625 17.121094 26.765625 20.636719 C 26.765625 22.453125 26 24.203125 24.664062 25.441406 C 24.5 25.59375 24.488281 25.851562 24.640625 26.019531 C 24.796875 26.1875 25.054688 26.195312 25.222656 26.042969 C 26.722656 24.652344 27.585938 22.683594 27.585938 20.636719 C 27.585938 16.808594 24.652344 13.65625 20.914062 13.304688 Z M 13.347656 7.632812 C 12.101562 8.246094 10.648438 8.355469 9.320312 7.945312 C 9.183594 7.902344 9.070312 7.804688 9.003906 7.675781 C 8.941406 7.546875 8.933594 7.398438 8.984375 7.261719 C 9.476562 5.949219 10.441406 4.886719 11.699219 4.273438 C 12.457031 3.902344 13.261719 3.714844 14.097656 3.714844 C 14.527344 3.714844 14.953125 3.761719 15.371094 3.863281 C 15.375 3.867188 15.378906 3.875 15.386719 3.878906 C 14.226562 4.28125 12.472656 5 10.824219 6.136719 C 10.636719 6.265625 10.589844 6.523438 10.71875 6.707031 C 10.847656 6.890625 11.105469 6.941406 11.289062 6.8125 C 13.003906 5.628906 14.847656 4.917969 15.9375 4.558594 C 15.972656 4.605469 16.003906 4.648438 16.039062 4.695312 C 15.542969 5.984375 14.59375 7.023438 13.347656 7.632812 Z M 16.414062 3.832031 C 15.679688 2.878906 14.773438 2.042969 13.792969 1.351562 C 13.664062 1.257812 13.632812 1.070312 13.722656 0.941406 C 13.816406 0.808594 14.003906 0.777344 14.136719 0.871094 C 15.664062 1.953125 16.925781 3.320312 17.882812 4.933594 C 17.875 4.960938 17.6875 5.726562 17.675781 5.761719 C 17.667969 5.746094 17.660156 5.730469 17.648438 5.714844 C 17.289062 5.046875 16.875 4.417969 16.414062 3.832031 Z M 13.390625 14.183594 C 13.320312 14.101562 13.25 14.023438 13.175781 13.945312 C 13.160156 13.925781 13 13.742188 12.992188 13.75 C 13.726562 13.160156 14.414062 12.523438 15.035156 11.855469 C 16.820312 9.929688 18.179688 7.589844 18.707031 5 C 18.90625 4.015625 18.988281 3.011719 18.953125 1.992188 C 18.945312 1.832031 19.074219 1.691406 19.234375 1.683594 L 19.246094 1.683594 C 19.40625 1.683594 19.535156 1.808594 19.539062 1.96875 C 19.625 4.253906 19.105469 6.535156 18.070312 8.570312 C 17.40625 9.875 16.519531 11.125 15.433594 12.289062 C 14.808594 12.960938 14.125 13.597656 13.390625 14.183594 Z M 14.515625 15.984375 C 14.34375 15.589844 14.132812 15.207031 13.886719 14.839844 C 14.65625 14.222656 15.375 13.554688 16.035156 12.847656 C 16.914062 11.902344 17.667969 10.90625 18.289062 9.867188 C 18.34375 10.109375 18.390625 10.351562 18.433594 10.597656 C 18.589844 11.515625 18.671875 12.46875 18.683594 13.433594 C 17.050781 13.78125 15.582031 14.675781 14.515625 15.984375 Z M 19.503906 13.308594 C 19.488281 12.339844 19.398438 11.382812 19.242188 10.460938 C 19.144531 9.894531 19.019531 9.339844 18.875 8.800781 C 18.886719 8.769531 18.902344 8.742188 18.914062 8.714844 C 19.03125 8.476562 19.144531 8.234375 19.246094 7.988281 C 19.492188 8.761719 19.6875 9.570312 19.828125 10.40625 C 19.988281 11.34375 20.074219 12.304688 20.09375 13.273438 C 20.046875 13.273438 19.503906 13.292969 19.503906 13.308594 Z M 19.503906 13.308594 "/>
</g>
</svg>
